<?xml version="1.0" standalone="no"?><!DOCTYPE svg PUBLIC "-//W3C//DTD SVG 1.1//EN" "http://www.w3.org/Graphics/SVG/1.1/DTD/svg11.dtd"><svg t="1542624150218" class="icon" style="" viewBox="0 0 1024 1024" version="1.1" xmlns="http://www.w3.org/2000/svg" p-id="14426" xmlns:xlink="http://www.w3.org/1999/xlink" width="200" height="200"><defs><style type="text/css"></style></defs><path d="M493.325283 575.770566l-68.661132-68.649057-19.622642 19.610566 78.478491 78.466416 9.805283 9.817358 137.322264-137.322264-19.622641-19.622642-117.699623 117.699623z" fill="#2E9FFF" p-id="14427"></path><path d="M512.006038 38.26717c-266.083019 0-481.811321 215.692075-481.811321 481.811321s215.692075 481.811321 481.811321 481.81132 481.811321-215.692075 481.81132-481.81132-215.740377-481.811321-481.81132-481.811321z m5.639245 799.070188A89.684528 89.684528 0 0 1 428.938868 759.281509h177.509434a89.684528 89.684528 0 0 1-88.803019 78.055849z m250.179623-102.991698a17.799245 17.799245 0 0 1-15.432453 8.911698H282.886038a17.811321 17.811321 0 0 1-15.432453-26.710943l56.984151-100.310943V481.811321c0-84.878491 54.895094-156.981132 131.175849-183.124529v-0.591698a62.321509 62.321509 0 1 1 124.643019 0v0.591698A193.521509 193.521509 0 0 1 711.504906 481.811321v134.424151l56.984151 100.310943a17.449057 17.449057 0 0 1-0.664151 17.799245z" fill="#2E9FFF" p-id="14428"></path></svg>