<?xml version="1.0" standalone="no"?><!DOCTYPE svg PUBLIC "-//W3C//DTD SVG 1.1//EN" "http://www.w3.org/Graphics/SVG/1.1/DTD/svg11.dtd"><svg t="1542623631677" class="icon" style="" viewBox="0 0 1024 1024" version="1.1" xmlns="http://www.w3.org/2000/svg" p-id="7708" xmlns:xlink="http://www.w3.org/1999/xlink" width="200" height="200"><defs><style type="text/css"></style></defs><path d="M512.1 512.4m-448 0a448 448 0 1 0 896 0 448 448 0 1 0-896 0Z" fill="#22B573" p-id="7709"></path><path d="M739.3 622.8H284.8c-15.3 0-27.8-12.5-27.8-27.8V329.6c0-15.3 12.5-27.8 27.8-27.8h454.5c15.3 0 27.8 12.5 27.8 27.8V595c0 15.3-12.5 27.8-27.8 27.8zM840.6 712.3h-657c-4.1 0-6.2-5-3.3-7.9l70.9-72.2c0.9-0.9 2.1-1.4 3.3-1.4h506.3c1.2 0 2.3 0.4 3.1 1.2l79.7 72.2c3.2 2.9 1.2 8.1-3 8.1z" fill="#FFFFFF" p-id="7710"></path><path d="M840.6 712.3h-657c-4.1 0-6.2 0.6-3.3 1l70.9 9.4c0.9 0.1 2.1 0.2 3.3 0.2h506.3c1.2 0 2.3-0.1 3.1-0.2l79.7-9.4c3.2-0.3 1.2-1-3-1z" fill="#FFFFFF" p-id="7711"></path><path d="M638.9 634.8h-46.7c-4.4 0-8-3.6-8-8s3.6-8 8-8h46.7c4.4 0 8 3.6 8 8s-3.6 8-8 8zM431.9 634.8h-46.7c-4.4 0-8-3.6-8-8s3.6-8 8-8h46.7c4.4 0 8 3.6 8 8s-3.6 8-8 8z" fill="#FFFFFF" p-id="7712"></path><path d="M763.1 673.1h-502l40-28.2h422z" fill="#22B573" p-id="7713"></path><path d="M597.1 703h-170c-6 0-9.4-7-5.6-11.7l8.4-10.4c1.4-1.7 3.4-2.6 5.6-2.6h153.2c2.2 0 4.2 1 5.6 2.6l8.4 10.4c3.7 4.7 0.4 11.7-5.6 11.7z" fill="#22B573" p-id="7714"></path><path d="M731.1 604h-438c-8.2 0-14.8-6.7-14.8-14.8V335.5c0-8.2 6.7-14.8 14.8-14.8h438c8.2 0 14.8 6.7 14.8 14.8v253.6c0 8.2-6.6 14.9-14.8 14.9z" fill="#22B573" p-id="7715"></path></svg>