<?xml version="1.0" standalone="no"?><!DOCTYPE svg PUBLIC "-//W3C//DTD SVG 1.1//EN" "http://www.w3.org/Graphics/SVG/1.1/DTD/svg11.dtd"><svg t="1542624353480" class="icon" style="" viewBox="0 0 1024 1024" version="1.1" xmlns="http://www.w3.org/2000/svg" p-id="16010" xmlns:xlink="http://www.w3.org/1999/xlink" width="200" height="200"><defs><style type="text/css"></style></defs><path d="M512 512m-512 0a512 512 0 1 0 1024 0 512 512 0 1 0-1024 0Z" fill="#FF9580" p-id="16011"></path><path d="M512 912.695652c-220.382609 0-400.695652-180.313043-400.695652-402.921739S291.617391 106.852174 512 106.852174h11.130435v369.530435H912.695652c0 11.130435 2.226087 22.26087 2.226087 33.391304C914.921739 732.382609 734.608696 912.695652 512 912.695652z m-31.165217-391.791304V151.373913C289.391304 169.182609 144.695652 336.13913 153.6 527.582609c8.904348 191.443478 169.182609 342.817391 362.852174 340.591304s349.495652-155.826087 356.173913-349.495652H480.834783v2.226087zM614.4 104.626087c146.921739 20.034783 267.130435 131.33913 293.843478 278.26087h-37.843478c-26.713043-124.66087-129.113043-220.382609-256-240.417392V104.626087z" fill="#FFFFFF" p-id="16012"></path></svg>